<svg width="136" height="60" viewBox="0 0 136 60" fill="none" xmlns="http://www.w3.org/2000/svg">
<path d="M102.993 29.124H105.821V38.306C105.821 39.2968 106.624 40.1 107.615 40.1C108.605 40.1 109.409 39.2968 109.409 38.306V20.862C109.409 19.8712 108.605 19.068 107.615 19.068C106.624 19.068 105.821 19.8712 105.821 20.862V26.068H102.993V23.564C102.993 22.5654 102.184 21.756 101.185 21.756C100.187 21.756 99.377 22.5654 99.377 23.564V26.068H98.245C97.4012 26.068 96.717 26.7521 96.717 27.596C96.717 28.4399 97.4012 29.124 98.245 29.124H99.377V38.292C99.377 39.2905 100.187 40.1 101.185 40.1C102.184 40.1 102.993 39.2905 102.993 38.292V29.124ZM116.57 41.5886L116.57 41.5899C116.28 42.3902 115.934 42.8502 115.509 43.114C115.082 43.3789 114.559 43.456 113.892 43.456H113.458C112.514 43.456 111.748 44.2216 111.748 45.1661C111.748 45.9418 112.273 46.6459 113.059 46.7416C113.48 46.7927 113.925 46.82 114.396 46.82C115.547 46.82 116.5 46.5497 117.298 45.9457C118.095 45.3429 118.727 44.4151 119.249 43.1173L119.249 43.1172L125.132 28.4328C125.586 27.3004 124.752 26.068 123.532 26.068C122.812 26.068 122.168 26.5156 121.917 27.1904L118.655 35.9545L115.583 27.2475C115.334 26.5407 114.666 26.068 113.916 26.068C112.674 26.068 111.82 27.3144 112.267 28.4726L116.949 40.5883L116.57 41.5886ZM65.0596 40.1C66.1045 40.1 66.9516 39.2529 66.9516 38.208V31.42H75.8236V38.208C75.8236 39.2529 76.6707 40.1 77.7156 40.1C78.7605 40.1 79.6076 39.2529 79.6076 38.208V21.324C79.6076 20.279 78.7605 19.432 77.7156 19.432C76.6707 19.432 75.8236 20.279 75.8236 21.324V27.888H66.9516V21.324C66.9516 20.279 66.1045 19.432 65.0596 19.432C64.0147 19.432 63.1676 20.279 63.1676 21.324V38.208C63.1676 39.2529 64.0147 40.1 65.0596 40.1ZM93.7928 26.068C92.7943 26.068 91.9848 26.8774 91.9848 27.876V33.42C91.9848 34.7257 91.7273 35.6713 91.22 36.2895C90.716 36.9037 89.9508 37.212 88.8928 37.212C87.9596 37.212 87.2576 36.9519 86.7856 36.3869C86.3104 35.8179 86.0528 34.9219 86.0528 33.616V27.876C86.0528 26.8774 85.2434 26.068 84.2448 26.068C83.2463 26.068 82.4368 26.8774 82.4368 27.876V34.82C82.4368 36.5318 82.9109 37.944 83.7996 38.9294C84.6894 39.9162 85.9852 40.464 87.6048 40.464C89.3788 40.464 91.1093 39.6515 92.0206 38.4213L92.0385 38.5524C92.1594 39.439 92.9167 40.1 93.8115 40.1C94.7997 40.1 95.6008 39.2988 95.6008 38.3106V27.876C95.6008 26.8774 94.7914 26.068 93.7928 26.068Z" fill="#050F27" stroke="black" stroke-width="0.2"/>
<rect x="39.8203" y="46.0391" width="31.2775" height="8.92857" rx="4.46429" transform="rotate(-120 39.8203 46.0391)" fill="#1D263C"/>
<rect x="5" y="35.7734" width="50" height="8.92857" rx="4.46429" fill="#050F27"/>
<path d="M30.5853 41.5731L30.5853 35.7717L27.2359 35.7717L30.5853 41.5731Z" fill="#050F27"/>
<path fill-rule="evenodd" clip-rule="evenodd" d="M10.7699 16.1804C8.63462 17.4131 7.90303 20.1435 9.13581 22.2787L22.0809 44.7003L25.1689 44.7003L30.5853 41.5731L27.2359 35.7717L16.8682 17.8144C15.6354 15.6792 12.9051 14.9476 10.7699 16.1804Z" fill="#050F27"/>
<path d="M30.5853 44.7003L30.5853 41.5731L25.1689 44.7003L30.5853 44.7003Z" fill="#050F27"/>
<path d="M130.877 26.66C128.097 26.66 126 24.5631 126 21.83C126 19.0969 128.12 17 130.877 17C133.634 17 135.707 19.0734 135.707 21.83C135.707 24.5866 133.634 26.66 130.877 26.66ZM130.877 25.8589C133.163 25.8589 134.859 24.139 134.859 21.83C134.859 19.521 133.163 17.8011 130.877 17.8011C128.568 17.8011 126.872 19.521 126.872 21.83C126.872 24.139 128.568 25.8589 130.877 25.8589ZM129.84 24.033C129.84 24.2737 129.645 24.4688 129.405 24.4688C129.164 24.4688 128.969 24.2737 128.969 24.033V19.4667C128.969 19.2364 129.155 19.0498 129.386 19.0498H131.089C132.267 19.0498 133.068 19.6624 133.068 20.6991C133.068 21.4059 132.668 21.9949 131.937 22.2541L132.8 23.8446C132.953 24.1262 132.749 24.4688 132.429 24.4688C132.272 24.4688 132.127 24.3816 132.054 24.2423L131.136 22.4897H129.84V24.033ZM132.126 20.7462C132.126 20.1572 131.725 19.8744 131.066 19.8744H129.84V21.6651H131.066C131.725 21.6651 132.126 21.3352 132.126 20.7462Z" fill="#050F27"/>
</svg>
